<svg width="20" height="20" viewBox="0 0 20 20" fill="none" xmlns="http://www.w3.org/2000/svg">
<path d="M7.95401 0.210598C9.2876 -0.0685617 10.6807 -0.0773717 12.0449 0.207848C12.2219 1.3674 12.9048 2.43892 13.9997 3.07103C15.0945 3.70313 16.364 3.75884 17.4566 3.3323C18.3858 4.37118 19.0747 5.58203 19.4997 6.87652C18.5852 7.60958 17.9997 8.736 17.9997 9.9992C17.9997 11.2632 18.5859 12.3902 19.5013 13.1232C19.29 13.7636 19.0104 14.3922 18.6599 14.9992C18.3094 15.6063 17.9049 16.1627 17.4559 16.6659C16.3634 16.2396 15.0943 16.2955 13.9997 16.9274C12.9057 17.559 12.223 18.6294 12.0453 19.7879C10.7118 20.067 9.3187 20.0758 7.95443 19.7906C7.77748 18.6311 7.09451 17.5595 5.99967 16.9274C4.90484 16.2953 3.63539 16.2396 2.54272 16.6662C1.61357 15.6273 0.924657 14.4164 0.499637 13.1219C1.41412 12.3889 1.99968 11.2624 1.99968 9.9992C1.99968 8.7353 1.41344 7.60827 0.498047 6.87524C0.709327 6.23482 0.988937 5.60629 1.33942 4.99923C1.68991 4.39217 2.09443 3.83576 2.54341 3.33257C3.63593 3.75881 4.90507 3.703 5.99967 3.07103C7.09364 2.43942 7.7764 1.3691 7.95401 0.210598ZM9.9997 12.9992C11.6565 12.9992 12.9997 11.6561 12.9997 9.9992C12.9997 8.3424 11.6565 6.99923 9.9997 6.99923C8.3428 6.99923 6.99967 8.3424 6.99967 9.9992C6.99967 11.6561 8.3428 12.9992 9.9997 12.9992Z" fill="white"/>
</svg>
